<svg width="20" height="14" viewBox="0 0 20 14" fill="none" xmlns="http://www.w3.org/2000/svg">
<path d="M0.223161 6.96186C0.103898 3.7604 2.85432 0.801866 5.99756 0.763482C7.59958 0.624172 9.15817 1.25845 10.3705 2.29295C9.87322 2.85046 9.36721 3.40152 8.8267 3.91743C7.75939 3.25631 6.47435 2.75248 5.22695 3.19994C3.21501 3.78402 1.99658 6.20599 2.74112 8.2127C3.35771 10.3085 5.85802 11.4587 7.81757 10.5783C8.83223 10.2079 9.50121 9.25337 9.79476 8.22774C8.63188 8.20411 7.46873 8.21888 6.30585 8.18613C6.30296 7.48072 6.30006 6.77799 6.30296 6.07258C8.24223 6.06963 10.1844 6.06372 12.1266 6.08144C12.2458 7.8098 11.9957 9.65949 10.8937 11.0467C9.38458 13.0268 6.59651 13.608 4.3284 12.8312C1.92128 12.0251 0.17077 9.55266 0.223161 6.96186Z" fill="#666666"/>
<path d="M15.9067 4.2937C16.4824 4.2937 17.058 4.2937 17.6364 4.2937C17.6395 4.88369 17.6451 5.47663 17.6482 6.06635C18.2266 6.07226 18.8082 6.07521 19.3869 6.07816C19.3869 6.66815 19.3869 7.25492 19.3869 7.84491C18.8085 7.84786 18.2269 7.85082 17.6482 7.85377C17.6424 8.44671 17.6395 9.03643 17.6364 9.62937C17.058 9.62642 16.479 9.62937 15.9035 9.62937C15.898 9.03643 15.898 8.44671 15.8919 7.85672C15.3135 7.85055 14.7319 7.84786 14.1533 7.84464C14.1533 7.25465 14.1533 6.66789 14.1533 6.0779C14.7319 6.07494 15.3106 6.07199 15.8919 6.06609C15.8948 5.47663 15.9006 4.88369 15.9067 4.2937Z" fill="#666666"/>
</svg>
